<?xml version="1.0" encoding="utf-8"?>
<!-- Generator: Adobe Illustrator 27.9.0, SVG Export Plug-In . SVG Version: 6.00 Build 0)  -->
<svg version="1.1" id="Camada_1" xmlns="http://www.w3.org/2000/svg" xmlns:xlink="http://www.w3.org/1999/xlink" x="0px" y="0px"
	 viewBox="0 0 1941.55 667.23" style="enable-background:new 0 0 1941.55 667.23;" xml:space="preserve">
<style type="text/css">
	.st0{fill:#F6DFD7;}
	.st1{fill:#72C865;}
	.st2{fill:#94DF83;}
	.st3{fill:#16651B;}
	.st4{fill:#2A2935;}
	.st5{fill:url(#SVGID_1_);}
</style>
<symbol  id="logo_reciclart_2" viewBox="-143.27 -49.03 286.54 98.06">
	<path class="st0" d="M69.3-22.52c-3.08,1.61-3.04,5.04-5.14,7.26c-1.44-0.96-2.89-1.89-4.29-2.88c-3.13-2.23-6.62-2.77-10.32-2.25
		c-4.23,0.6-6.62,3.06-7.27,7.32C41.11-5.4,45.58,3.72,52.34,7.6c4.38,2.52,13.13,0.5,14.97-5.34c1.18-3.74,1.46-7.57,1.91-11.39
		c0.36-3.1,0.5-6.22,1.5-9.21C71.27-19.98,70.73-21.21,69.3-22.52z M62.4-3.1c-0.27,2.2,0.47,5.55-2.46,6.88
		c-2.86,1.3-5.39-0.64-7.84-2.3c-3.71-2.52-4.93-6.41-5.88-10.32c-1-4.11,1.4-7.82,4.45-7.42C58.03-15.3,62.35-12.45,62.4-3.1z"/>
	<path class="st0" d="M-94-12.72c1.83-4.55,7.07-6.35,11.48-4.43c1.97,0.85,3.96,1.49,6.1,1.4c0.98-0.04,2.07-0.24,2.42-1.39
		c0.4-1.31-0.46-2.08-1.41-2.76c-8.22-5.89-22.16-0.59-23.98,9.26c-1.08,5.83-0.32,11.34,4.06,15.91c4.11,4.29,9.47,4.79,13.44,1.08
		c3.43-3.21,3.17-10.11-0.48-13.83C-85.45-10.65-88.74-13.41-94-12.72z M-84.17-0.15c-0.13,1.88-0.11,4.17-3.44,4.06
		c-3.67-0.11-6.43-3.37-6.44-7.64c0-2.07,0.63-3.32,2.91-3.35C-87.41-7.12-84.16-4.11-84.17-0.15z"/>
	<path class="st0" d="M128.93-0.44c-0.59-4.27,1.05-7.56,2.26-10.91c0.8-2.23,1.77-4.4,1.96-6.79c0.1-1.24,0.38-2.69-1.03-3.28
		c-1.44-0.6-2.7,0.25-3.57,1.36c-1.68,2.13-2.12,4.72-2.42,7.33c-0.34,2.97-0.6,5.95-1.06,8.9c-0.44,2.83-1.8,4.76-5.03,5.04
		c-2.08,0.18-4.14,0.84-6.17,1.41c-1.24,0.35-3.13,0.32-2.96,2.19c0.2,2.2,2.21,1.54,3.57,1.6c2.45,0.1,4.91,0.03,7.56,0.03
		c0.7,4.91-2.4,10.56,3.75,14.14c0.36-3.09,0.55-5.65,0.97-8.18c1.13-6.82,4.14-8.84,10.92-7.76c1.91,0.3,4.96,2.34,5.52-1.1
		c0.61-3.71-3.15-2.69-5.15-3.08C135.14-0.13,132.13-0.16,128.93-0.44z"/>
	<path class="st0" d="M87.53-6.4c1.54,2.68,2.83,5.29,4.45,7.68c2.32,3.43,8.87,3.73,11.4,0.57c1.11-1.38,1.91-3.19,0.42-4.71
		c-1.31-1.34-2.94-1.01-4.29,0.27c-2.46,2.33-3.94,0.82-5.11-1.38c-2.34-4.41-1.04-8.95-0.23-13.41c0.28-1.53,0.93-3.09-0.68-3.96
		c-1.63-0.88-3.15,0.01-4.28,1.33c-4.9,5.72-7.6,12.49-9.34,19.71C79.58,0.9,79.54,2.4,81,2.91c1.56,0.54,2.07-0.98,2.76-1.95
		C85.31-1.24,85.5-4.17,87.53-6.4z"/>
	<path class="st0" d="M-48.15,1.74c-0.97,0.19-1.57,0.25-2.14,0.42c-6.25,1.79-9.05,0.13-10.29-6.3c-0.33-1.7-0.23-3.48-0.32-5.22
		c-0.13-2.34,0.12-4.73,2.35-5.92c2.5-1.34,5.08-0.72,7.44,0.77c1.78,1.13,3.2,2.81,5.28,3.49c0.46,0.15,0.97,0.18,1.47,0.27
		c1.83-1.45,1.09-3.48,0.3-4.57c-2.81-3.86-6.49-6.43-11.62-6.24c-4.46,0.17-6.5,3.33-8.26,6.66c-4.42,8.33-2.37,17.03,4.85,21.36
		C-54.29,9.33-49.17,7.36-48.15,1.74z"/>
	<path class="st0" d="M-0.44,2.05c-1.04-0.63-1.92,0.14-2.82,0.4c-4.81,1.39-7.54-0.09-9.06-4.94c-0.64-2.06-0.71-4.17-0.72-6.3
		c-0.01-2.55-0.13-5.3,2.51-6.58c2.82-1.38,5.56-0.46,8.05,1.35c1.86,1.35,3.4,3.46,6.48,2.83c0.41-3.74-1.39-6.41-4.35-8.25
		c-3.51-2.19-7.43-3.42-11.25-0.92c-9.14,5.98-8.91,21.11,0.29,26.76C-6.37,9.42-0.85,7.22-0.44,2.05z"/>
	<path class="st0" d="M-29.61,5.05c1.54-7.44,3.15-14.8,4.52-22.2c0.27-1.47,1.03-3.74-1.47-4.34c-2.45-0.59-3.62,1.12-4.42,3.07
		c-1.64,3.98-1.83,8.22-2.06,12.43c-0.13,2.35,0.04,4.72,0,7.08C-33.08,3.29-32.05,4.54-29.61,5.05z"/>
	<path class="st1" d="M22.58,41.9c-3.48-4.38-5.55-4.44-9.58-0.4c-1.28,1.29-2.75,2.39-3.98,3.45c1.14,2.06,2.39,1.97,3.62,1.9
		c2.22-0.37,4.44-0.73,6.66-1.1c0.21-0.2,0.41-0.4,0.62-0.6l-0.06,0.07C20.77,44.12,21.67,43.01,22.58,41.9z"/>
	<path class="st1" d="M36.19,45.38c-0.16,3.83,3.22,2.38,4.85,3.65c2.33-5.3,0.48-11.38-4.01-13.95c-0.27,0.44-0.56,0.88-0.84,1.32
		c0.25,2.17,3.09,3.53,2.04,6.5c-0.78-0.65-1.32-1.09-1.86-1.54C36.31,42.71,36.25,44.05,36.19,45.38z"/>
	<path class="st0" d="M-30.12,15.3c0.05-1.34-0.76-1.82-1.88-1.71c-1.11,0.1-2.73-0.35-2.69,1.62c0.02,1.22,0.63,2.16,1.98,2.26
		C-31.19,17.59-30.61,16.46-30.12,15.3z"/>
	<path class="st2" d="M19.3,45.76c-2.22,0.36-4.44,0.73-6.66,1.1c4.54,3,8.12,2.47,10.83-1.6c-1.2-0.01-2.4-0.02-3.6-0.03l0.06-0.07
		C19.72,45.36,19.51,45.56,19.3,45.76z"/>
	<path class="st3" d="M34.21,35.42c-0.43,0.27-0.85,0.54-1.28,0.82c0.13,0.76,0.39,1.43,1.1,1.83c1.5,0.59,1.69,2.11,2.34,3.31
		c0.54,0.45,1.08,0.9,1.86,1.54c1.06-2.97-1.79-4.33-2.04-6.5C35.53,36.08,34.87,35.75,34.21,35.42z"/>
	<path class="st4" d="M30.7,40.3c0.12-0.57,0.58-3.05-0.93-4.84c-0.21-0.26-0.5-0.53-0.87-0.79c0.36,3.65-0.42,6.59-4.58,7.44
		c0.14,0.6,0.28,1.2,0.42,1.81c0.6,0,1.96-0.06,3.4-0.91C29.7,42.11,30.43,40.83,30.7,40.3z"/>
	<path class="st4" d="M34.37,35.28c-0.99-1.02-1.96-2.06-2.97-3.06c-0.6-0.59-1.18-0.99-1.85-0.9c-0.6,0.08-1.02,0.53-1.24,0.81
		c0.07,0.4,0.16,0.82,0.26,1.26c0.1,0.45,0.22,0.88,0.33,1.29c0.29,1.37,0.47,2.94,0.43,4.67c-0.01,0.35-0.03,0.69-0.05,1.03
		c-0.19,0.42-0.23,0.67-0.13,0.76c0.16,0.14,0.68-0.14,1.55-0.84c0.25-0.44,0.51-0.96,0.74-1.57c0.3-0.8,0.48-1.53,0.59-2.14
		c0.14-0.56,0.43-0.88,0.62-0.84c0.16,0.03,0.27,0.3,0.31,0.62C33.43,36.01,33.9,35.64,34.37,35.28z"/>
	<path class="st4" d="M36.19,36.41c0.28-0.44,0.57-0.88,0.84-1.33c-2.6-2.15-5.19-4.3-7.78-6.46c-0.82,0.7-1.39,1.76-2.66,1.76
		c0.62,0.8,1.25,1.6,1.87,2.4c0.81-1.68,1.84-1.33,2.9-0.28c0.97,0.95,1.9,1.94,2.84,2.91C34.87,35.75,35.53,36.08,36.19,36.41z"/>
	<path class="st0" d="M27.52,27.15C19.58,18.27,15.04,8.12,15.33-4.03c0.09-3.86,1.08-7.09,4.11-9.71c1.27,0.94,1.22,2.56,1.85,3.8
		c1.11,2.19,2.58,4.01,4.7,5.19c1.95,1.08,4.22,1.35,6.02-0.03c1.99-1.51,1.55-3.74,0.72-5.83c-2.04-5.17-5.86-7.87-11.45-8.19
		c-0.28-2.24-0.93-5.6-2.61-9.36c-1.69-3.79-3.39-7.61-7.02-9.25c-1.36-0.62-3.23-1.04-10.36,0.6c-8.11,1.86-10.62,3.53-16.02,4.85
		c-2.43,0.59-8.41,2.06-15.08,1.18c-2.66-0.35-4.65-0.97-22.69-10.53c-6.87-3.64-10.22-5.48-15.69-6.66
		c-3.75-0.81-6.91-1.5-10.85-0.72c-7.25,1.42-11.8,6.78-16.09,11.89c-3.23,3.86-5.53,8.45-8.27,12.7
		c-6.46,10-16.7,14.56-27.47,18.15c-0.77,0.26-1.73,0.29-2.68-0.38c1.31-4.77,4.24-9.39,2.55-14.93c-2.86,0.16-3.88,2.27-4.99,4.09
		c-4.08,6.66-5.26,14.21-6.43,21.74c-0.79,5.07-0.95,10.19-0.8,15.32c0.05,1.57,0.23,2.91,1.81,3.78c3.4,1.87,15.87,0.86,18.85-1.62
		c1.07-0.89,2.69-2.5,3.13-4.99c0.51-2.81-0.84-5.17-1.51-6.37c-0.92-1.61-1.84-2.43-4.71-5c-1.04-0.93-3.11-2.78-6.19-5.54
		c2.84-0.85,6.79-2.23,11.22-4.51c10.47-5.39,17-12.37,19.04-14.66c5.98-6.7,6.69-10.41,14.98-19.22c1.97-2.09,4.82-4.96,9.17-5.83
		c3-0.6,5.76-0.06,8.45,0.47c4.48,0.88,7.71,2.33,8.62,2.75c17.04,7.81,20.94,12.68,30.01,13.81c5.64,0.71,14.82,0.16,22.11-3.37
		c2.49-1.2,5.91-2.08,12.74-3.83c1.12-0.29,3.17-0.78,5.36,0c1.94,0.7,3.43,2.2,3.71,2.5c0.32,0.33,0.79,0.72,1.22,1.52
		c1.78,3.34,2.71,6.94,3.53,10.59c0.2,0.9,0.09,1.67-0.8,2.27c-5.96,4.02-5.78,10.21-5.01,16.14c1.3,10.07,4.2,19.67,10.5,27.93
		c0.61,0.8,1.11,1.66,2.04,2.12C25.88,28.26,26.7,27.7,27.52,27.15z M-138.7,10.95c0-0.36-0.08-1.74,0.02-3.1
		c0.24-3.46,1.44-4.19,4.53-2.77c3.22,1.48,5.88,3.7,8.08,6.47c1.22,1.54,2.65,3.23,1.77,5.35c-0.87,2.06-3,2.48-4.98,2.77
		C-137.03,20.81-138.48,19.6-138.7,10.95z M30.82-7.45c-4.98-0.05-7.49-2.41-8.12-7.31C27.27-14.44,29.55-12.44,30.82-7.45z"/>
	
		<linearGradient id="SVGID_1_" gradientUnits="userSpaceOnUse" x1="-123.8745" y1="-28.825" x2="-113.1869" y2="-18.1374" gradientTransform="matrix(1 0 0 1 143.25 49.03)">
		<stop  offset="0.0196" style="stop-color:#F6DFD7;stop-opacity:0"/>
		<stop  offset="0.052" style="stop-color:#E6D1CA;stop-opacity:0.049"/>
		<stop  offset="0.1739" style="stop-color:#AF9F9F;stop-opacity:0.2329"/>
		<stop  offset="0.2926" style="stop-color:#81767A;stop-opacity:0.4122"/>
		<stop  offset="0.4054" style="stop-color:#5D565E;stop-opacity:0.5825"/>
		<stop  offset="0.5109" style="stop-color:#44404A;stop-opacity:0.7416"/>
		<stop  offset="0.606" style="stop-color:#34323D;stop-opacity:0.8853"/>
		<stop  offset="0.682" style="stop-color:#2F2D39"/>
	</linearGradient>
	<path class="st5" d="M26.99,30.9c0.36-0.38,0.72-0.75,1.1-1.14c0.39-0.39,0.78-0.77,1.16-1.14c-0.25-0.23-0.59-0.55-0.99-0.94
		c-1.35-1.32-2.31-2.39-2.64-2.76c-1.11-1.26-1.66-1.88-2.21-2.7c-1.29-1.92-1.37-2.9-2.14-3.05c-0.46-0.09-1.15,0.11-2.2,1.4
		c0.89,1.73,2.1,3.77,3.77,5.88C24.27,28.26,25.7,29.73,26.99,30.9z"/>
	<path class="st3" d="M24.75,43.92c-0.14-0.6-0.28-1.2-0.42-1.81c-0.59-0.07-1.18-0.14-1.76-0.21c-0.9,1.11-1.8,2.22-2.71,3.32
		c1.2,0.01,2.4,0.02,3.6,0.03C23.9,44.81,24.33,44.37,24.75,43.92z"/>
	<path class="st2" d="M36.37,41.37c-0.64-1.2-0.83-2.72-2.34-3.31c-0.53,2.81-0.05,5.32,2.16,7.32
		C36.25,44.05,36.31,42.71,36.37,41.37z"/>
	<path class="st3" d="M19.3,45.76c0.21-0.2,0.41-0.4,0.62-0.6C19.72,45.36,19.51,45.56,19.3,45.76z"/>
	<path class="st0" d="M27.36,28.97"/>
</symbol>
<g>
	<defs>
		<rect id="SVGID_00000057115526869880687320000016870238153460821949_" x="0.81" width="1940.73" height="664.25"/>
	</defs>
	<clipPath id="SVGID_00000119823617862278645600000002857119433458383294_">
		<use xlink:href="#SVGID_00000057115526869880687320000016870238153460821949_"  style="overflow:visible;"/>
	</clipPath>
	
		<g transform="matrix(1 0 0 1 6.103516e-05 0)" style="clip-path:url(#SVGID_00000119823617862278645600000002857119433458383294_);">
		
			<use xlink:href="#logo_reciclart_2"  width="286.54" height="98.06" id="XMLID_00000033331853129308004750000008311901676185496484_" x="-143.27" y="-49.03" transform="matrix(6.7739 0 0 -6.7739 970.4913 335.0989)" style="overflow:visible;"/>
	</g>
</g>
</svg>
