<svg width="40" height="39" viewBox="0 0 40 39" fill="none" xmlns="http://www.w3.org/2000/svg">
<g clip-path="url(#clip0_413_584)" filter="url(#filter0_i_413_584)">
<path opacity="0.99" d="M33.2246 15.8632V16.9376L34.2962 16.8606C35.7713 16.7548 37.2143 16.6281 38.621 16.4885C37.644 19.8179 36.6687 23.1456 35.6934 26.4732L35.6825 26.5105C34.6341 30.0874 33.5858 33.6641 32.5356 37.2427H7.02295C6.04554 33.67 5.07008 30.0992 4.09455 26.5282C3.18027 23.1814 2.26594 19.8344 1.35 16.4858C2.76514 16.627 4.21613 16.7563 5.69902 16.8698L6.77535 16.9522V15.8727V13.8172L6.81995 13.232C7.34123 6.39357 13.031 1 19.9952 1C26.9688 1 32.65 6.39356 33.1802 13.2239L33.2246 13.7971V15.8632ZM7.72952 16.0722V17.0151L8.67079 17.0705C12.0787 17.2709 15.6492 17.395 19.3822 17.4141L19.385 17.4142C23.5668 17.4237 27.5488 17.2996 31.331 17.0704L32.2705 17.0134V16.0722V13.5645V12.5645H32.1659C31.3393 6.57386 26.2115 1.95417 19.9952 1.95417C13.7798 1.95417 8.65123 6.57316 7.83277 12.5645H7.72952V13.5645V16.0722Z" stroke="#32563B" stroke-width="2"/>
</g>
<defs>
<filter id="filter0_i_413_584" x="0" y="0" width="40" height="39.2427" filterUnits="userSpaceOnUse" color-interpolation-filters="sRGB">
<feFlood flood-opacity="0" result="BackgroundImageFix"/>
<feBlend mode="normal" in="SourceGraphic" in2="BackgroundImageFix" result="shape"/>
<feColorMatrix in="SourceAlpha" type="matrix" values="0 0 0 0 0 0 0 0 0 0 0 0 0 0 0 0 0 0 127 0" result="hardAlpha"/>
<feOffset dy="1"/>
<feGaussianBlur stdDeviation="1"/>
<feComposite in2="hardAlpha" operator="arithmetic" k2="-1" k3="1"/>
<feColorMatrix type="matrix" values="0 0 0 0 0 0 0 0 0 0 0 0 0 0 0 0 0 0 0.25 0"/>
<feBlend mode="normal" in2="shape" result="effect1_innerShadow_413_584"/>
</filter>
<clipPath id="clip0_413_584">
<rect width="40" height="38.2427" fill="white"/>
</clipPath>
</defs>
</svg>
