<svg width="79" height="76" viewBox="0 0 79 76" fill="none" xmlns="http://www.w3.org/2000/svg">
<path fill-rule="evenodd" clip-rule="evenodd" d="M10 0C4.47715 0 0 4.47715 0 10V15.8151V61.244V66C0 71.5229 4.47715 76 10 76H13.5793H65.4537H69C74.5229 76 79 71.5229 79 66V61.2394V15.8169V10C79 4.47715 74.5229 0 69 0H63.8398H15.1715H10ZM12.2275 38.4439H12.2147C12.2147 39.4632 12.2127 40.4825 12.2107 41.502V41.5026L12.2107 41.506L12.2106 41.5566C12.2061 43.9218 12.2016 46.2872 12.222 48.6534C12.2475 51.6185 12.6817 54.5032 13.9554 57.2293C15.3988 60.3182 17.6578 62.5557 20.7269 64.018C23.5388 65.3584 26.5606 65.7011 29.5951 65.7414C36.04 65.8271 42.4868 65.816 48.9317 65.7395C51.4735 65.7084 54.019 65.5133 56.4769 64.6818C60.5222 63.3106 63.451 60.7796 65.1918 56.8373C66.4034 54.0948 66.6662 51.2008 66.7008 48.2887C66.7692 42.7566 66.753 37.223 66.7368 31.6904V31.6896V31.6887L66.7299 29.239C66.7245 27.1748 66.606 25.1124 66.1715 23.0811C65.2209 18.6318 62.8123 15.2638 58.7797 13.1047C55.851 11.5385 52.6341 11.1792 49.4061 11.1537C47.8833 11.1414 46.3602 11.1218 44.837 11.1021C38.8823 11.0252 32.9254 10.9482 26.9767 11.3141C22.0299 11.6187 17.8531 13.5004 14.9609 17.72C12.9573 20.6431 12.346 23.9818 12.2493 27.4136C12.1772 29.9635 12.1946 32.5142 12.212 35.0647V35.0648L12.212 35.0677C12.2198 36.1931 12.2275 37.3186 12.2275 38.4439ZM36.7276 61.0685L36.7226 61.0686L36.6553 61.0689C33.8206 61.0851 31.4601 61.0986 29.101 61.0242C26.8365 60.953 24.5702 60.7288 22.4627 59.6876C19.4575 58.2032 17.9356 55.7051 17.2806 52.5413C16.9004 50.7004 16.9024 48.8387 16.9045 46.9763V46.8247C16.9065 45.0879 16.9047 43.3511 16.9029 41.6143C16.898 36.823 16.8931 32.0323 16.9666 27.2423C17.0086 24.4834 17.5961 21.8084 19.452 19.5911C21.5357 17.1001 24.3386 16.1667 27.4424 16.0007C33.4168 15.6818 39.3961 15.7537 45.3743 15.8256C46.7815 15.8425 48.1893 15.8595 49.5963 15.8711C51.5889 15.8877 53.5887 16.0919 55.5085 16.812C58.7108 18.0138 60.5866 20.337 61.457 23.5534C61.8548 25.0269 61.9424 26.5476 62.0117 28.0648C62.2634 33.621 62.2325 39.1806 62.1522 44.7368C62.1493 44.9371 62.1468 45.1373 62.1443 45.3376L62.1426 45.4812C62.1111 48.0479 62.0794 50.6274 61.4972 53.1613C60.4461 57.74 57.0211 60.189 52.7932 60.7524C49.9347 61.1325 47.0731 61.0844 44.6157 61.0429L44.6026 61.0427C43.2564 61.0202 42.0321 60.9998 40.9964 61.0533C39.4419 61.0533 38.0342 61.0612 36.7276 61.0685ZM39.3851 52.3207C47.0927 52.6763 53.4173 45.7853 53.452 38.6301C53.4902 30.9824 47.4067 24.5071 39.5075 24.4416C31.9293 24.3777 25.6597 30.6522 25.4844 38.0957C25.3039 45.8656 31.8254 52.5888 39.3851 52.3207ZM57.2491 23.8415C57.2582 22.0801 55.8404 20.6122 54.1252 20.6067C52.4046 20.6012 50.9357 22.0528 50.9102 23.7796C50.8863 25.4407 52.3353 26.916 54.0213 26.9451C55.8095 26.9762 57.24 25.6013 57.2491 23.8415ZM39.4272 47.7473C44.8101 47.7309 48.8263 43.2397 48.7187 38.6117C48.9065 33.3309 44.582 29.2026 39.5786 29.146C34.4111 29.0858 30.3182 33.1703 30.1959 38.2981C30.0736 43.3564 34.2542 47.7636 39.4272 47.7473Z" fill="white"/>
</svg>
