<svg width="40" height="40" viewBox="0 0 40 40" fill="none" xmlns="http://www.w3.org/2000/svg">
<circle cx="20" cy="20" r="19" stroke="#32563B" stroke-width="2"/>
<circle cx="20" cy="12.8" r="7" stroke="#32563B" stroke-width="2"/>
<mask id="path-3-inside-1_736_9" fill="white">
<path fill-rule="evenodd" clip-rule="evenodd" d="M6.76994 34.9993C6.70191 34.4535 6.66687 33.8975 6.66687 33.3333C6.66687 25.9695 12.6364 20 20.0002 20C27.364 20 33.3335 25.9695 33.3335 33.3333C33.3335 33.8973 33.2985 34.4531 33.2305 34.9986C29.7047 38.1113 25.0729 40 19.9999 40C14.9273 40 10.2957 38.1115 6.76994 34.9993Z"/>
</mask>
<path d="M6.76994 34.9993L4.78529 35.2466L4.87891 35.9978L5.44639 36.4987L6.76994 34.9993ZM33.2305 34.9986L34.5542 36.498L35.1216 35.997L35.2152 35.2459L33.2305 34.9986ZM8.75458 34.7519C8.69676 34.288 8.66687 33.8146 8.66687 33.3333H4.66687C4.66687 33.9804 4.70706 34.619 4.78529 35.2466L8.75458 34.7519ZM8.66687 33.3333C8.66687 27.0741 13.741 22 20.0002 22V18C11.5318 18 4.66687 24.865 4.66687 33.3333H8.66687ZM20.0002 22C26.2594 22 31.3335 27.0741 31.3335 33.3333H35.3335C35.3335 24.865 28.4686 18 20.0002 18V22ZM31.3335 33.3333C31.3335 33.8144 31.3037 34.2876 31.2459 34.7514L35.2152 35.2459C35.2934 34.6185 35.3335 33.9802 35.3335 33.3333H31.3335ZM31.9069 33.4993C28.7324 36.3017 24.5669 38 19.9999 38V42C25.5788 42 30.6769 39.9208 34.5542 36.498L31.9069 33.4993ZM19.9999 38C15.4331 38 11.2679 36.302 8.09348 33.4999L5.44639 36.4987C9.32352 39.9211 14.4214 42 19.9999 42V38Z" fill="#32563B" mask="url(#path-3-inside-1_736_9)"/>
</svg>
