<svg width="81" height="90" viewBox="0 0 81 90" fill="none" xmlns="http://www.w3.org/2000/svg">
<g clip-path="url(#clip0_445_9179)" filter="url(#filter0_i_445_9179)">
<path d="M35.6578 88.2213C35.8596 87.7744 36.0759 87.3371 36.2633 86.8854C37.0658 84.9536 37 84.5 38.9735 81.3881C40.947 78.2761 41.9673 76.5442 44.2739 74.944C46.0663 73.6946 46.416 72.8881 47.916 70.3881C49.416 67.8881 49.0937 68.3881 50.416 65.8881C52.416 63.3881 50.416 65.8881 52.916 62.3881C55.5954 58.6369 56.369 58.2693 58.171 55.1506C58.9783 53.7571 59.949 52.9161 61.6021 52.623C62.5103 52.4644 63.7116 51.758 63.9999 50.9988C64.2498 50.3452 63.6155 48.8123 62.9668 48.5C62.1162 48.0867 60.689 48.1444 59.8289 48.6009C55.331 50.9795 51.9673 54.7181 49.0937 58.7691C45.4608 63.8916 41.8712 69.1054 38.9735 74.6557C37.0129 78.4087 36.2729 82.796 35.0283 86.9142C34.9178 87.2794 35.11 87.7359 35.1628 88.1492C35.331 88.1684 35.4944 88.1972 35.6578 88.2213Z" fill="#4D7B58"/>
<path d="M65.2762 45.2811C66.2276 44.2624 67.3713 43.3638 68.1017 42.2057C68.9763 40.8217 69.7356 39.3945 70.3747 37.9337C72.2151 33.7338 72.4554 30.668 73.1666 24.6276C73.2387 24.0269 73.3925 22.5421 72.5948 21.1533C72.3881 20.7977 71.6962 19.5915 70.6294 19.5771C69.8317 19.5675 69.2502 20.2211 69.0292 20.4805C67.7365 21.9894 67.9335 24.5988 68.5006 24.7814C68.5582 24.8006 68.6063 24.791 68.6543 24.7814C69.1445 24.6901 69.3752 23.8299 69.5049 23.3157C69.798 22.1672 69.601 21.778 69.9662 21.4608C70.2353 21.2302 70.6678 21.1629 70.9705 21.3071C70.9801 21.3119 70.9898 21.3167 71.0042 21.3263C71.5376 21.6434 71.6481 22.9553 71.6481 22.9553C71.7634 24.4402 71.8211 25.1802 71.7394 26.098C71.6481 27.1264 71.4943 27.8856 71.4703 28.0154C70.4612 32.9649 67.7221 39.6204 67.7221 39.6204C67.131 41.038 66.2997 42.9793 65.2762 45.2811Z" fill="#4D7B58"/>
<path d="M66.5832 46.6363C67.7701 45.9058 69.1108 45.3388 70.12 44.4162C71.3309 43.3109 72.4362 42.1336 73.4405 40.8938C76.3237 37.3282 77.3665 34.4354 79.6442 28.7987C79.8701 28.2364 80.4131 26.8429 80.0095 25.3004C79.9037 24.9015 79.5529 23.556 78.5294 23.2629C77.7653 23.0418 77.0301 23.5224 76.7466 23.7146C75.1032 24.8294 74.6034 27.3955 75.1032 27.7223C75.156 27.7559 75.2041 27.7607 75.2521 27.7607C75.7519 27.7992 76.194 27.0303 76.4583 26.569C77.0445 25.5406 76.9532 25.1081 77.3953 24.9015C77.7173 24.7525 78.1498 24.8006 78.4045 25.0168C78.4141 25.0216 78.4237 25.0313 78.4333 25.0409C78.8658 25.4878 78.6255 26.7804 78.6255 26.7852C78.3468 28.2461 78.2074 28.9765 77.8855 29.8414C77.5251 30.8073 77.1791 31.5041 77.1166 31.6194C74.8341 36.1317 70.4419 41.8261 70.4419 41.8261C69.4953 43.0322 68.1834 44.6853 66.5832 46.6363Z" fill="#4D7B58"/>
<path d="M36.4535 25.1273C37.3762 21.5714 39.8701 19.3609 43.455 16.271C48.5583 11.8693 50.7832 11.8405 52.7245 8.64969C54.589 5.58385 54.5986 2.20567 54.3728 0C55.9442 1.1581 64.9206 8.01057 66.5256 20.5959C67.9912 32.1 62.2776 40.4085 60.9658 42.2201C57.2608 45.7232 53.5511 49.2215 49.8461 52.7247C45.5837 46.1317 41.3262 39.5435 37.0686 32.9505C36.3959 31.1677 35.6318 28.2797 36.4535 25.1273Z" fill="#7B4D6F"/>
<path d="M7.31358 24.3009C6.53991 22.4796 5.23285 22.6863 4.01709 19.976C3.23862 18.2413 2.28715 14.8246 3.60382 13.3878C5.66534 11.1437 12.7965 14.2528 16.9916 16.6843C24.0411 20.7689 27.477 25.7377 34.291 34.6036C37.328 38.5584 42.3352 44.8343 49.1685 53.5512L43.9162 60.0385C36.3285 52.0712 30.514 50.6151 26.0498 50.2547C19.5961 49.7357 12.9118 52.2249 11.0137 49.2264C9.59614 46.9871 11.7153 43.0707 9.98537 42.0183C9.17807 41.5282 8.46688 42.2201 6.89552 41.8117C5.31935 41.3984 4.09398 40.1923 3.59902 39.3417C1.31166 35.358 9.45198 29.3417 7.31358 24.3009Z" fill="#7B4D6F"/>
<path d="M-0.000190735 63.0178C1.80663 61.3215 8.80327 55.1562 19.7691 54.5748C30.6101 53.9981 40.2112 60.6968 42.2151 62.1961L39.5 67C37.8902 67.6151 34.5697 69.5099 32.5322 71.6723C28.4957 75.9539 29.6778 79.9568 25.3242 85.2667C23.748 87.1889 21.4703 89.9664 18.3227 90.0049C15.1223 90.0433 12.7437 87.2177 11.3213 85.4734C5.13676 77.9049 5.18962 67.5445 5.55483 62.6142C3.70956 62.7439 1.85469 62.8833 -0.000190735 63.0178Z" fill="#7B4D6F"/>
</g>
<defs>
<filter id="filter0_i_445_9179" x="0" y="0" width="80.9033" height="91" filterUnits="userSpaceOnUse" color-interpolation-filters="sRGB">
<feFlood flood-opacity="0" result="BackgroundImageFix"/>
<feBlend mode="normal" in="SourceGraphic" in2="BackgroundImageFix" result="shape"/>
<feColorMatrix in="SourceAlpha" type="matrix" values="0 0 0 0 0 0 0 0 0 0 0 0 0 0 0 0 0 0 127 0" result="hardAlpha"/>
<feOffset dy="1"/>
<feGaussianBlur stdDeviation="1"/>
<feComposite in2="hardAlpha" operator="arithmetic" k2="-1" k3="1"/>
<feColorMatrix type="matrix" values="0 0 0 0 0 0 0 0 0 0 0 0 0 0 0 0 0 0 0.25 0"/>
<feBlend mode="normal" in2="shape" result="effect1_innerShadow_445_9179"/>
</filter>
<clipPath id="clip0_445_9179">
<rect width="80.9034" height="90" fill="white" transform="matrix(-1 0 0 1 80.9033 0)"/>
</clipPath>
</defs>
</svg>
