<svg width="33" height="30" viewBox="0 0 33 30" fill="none" xmlns="http://www.w3.org/2000/svg">
<path fill-rule="evenodd" clip-rule="evenodd" d="M29.2135 11.3643C29.2135 15.6568 25.1698 19.7286 19.4062 19.7286C13.6427 19.7286 9.59896 15.6568 9.59896 11.3643C9.59896 7.07187 13.6427 3 19.4062 3C25.1698 3 29.2135 7.07187 29.2135 11.3643ZM32.2135 11.3643C32.2135 17.6407 26.4795 22.7286 19.4062 22.7286C16.9341 22.7286 14.6255 22.1071 12.6682 21.0306L3.12554 29.5227C2.41182 30.1579 1.25318 30.1596 0.537633 29.5265C-0.177913 28.8934 -0.179399 27.8653 0.534315 27.2301L9.85499 18.9355C7.83004 16.9255 6.59896 14.2725 6.59896 11.3643C6.59896 5.08798 12.333 0 19.4062 0C26.4795 0 32.2135 5.08798 32.2135 11.3643Z" fill="#32563B"/>
</svg>
