<svg width="32" height="38" viewBox="0 0 32 38" fill="none" xmlns="http://www.w3.org/2000/svg">
<g clip-path="url(#clip0_539_1093)">
<path d="M14.2656 36.9948C14.3412 36.8104 14.4223 36.63 14.4926 36.4437C14.7934 35.6468 14.7688 35.4596 15.5087 34.1758C16.2486 32.892 16.6311 32.1776 17.4959 31.5174C18.1679 31.002 18.2991 30.6693 18.8614 29.6379C19.4238 28.6066 19.303 28.8128 19.7988 27.7815C20.5486 26.7501 19.7988 27.7815 20.7361 26.3376C21.7406 24.7901 22.0307 24.6384 22.7063 23.3519C23.009 22.777 23.3729 22.43 23.9927 22.3091C24.3332 22.2437 24.7836 21.9523 24.8917 21.6391C24.9854 21.3694 24.7475 20.7371 24.5043 20.6082C24.1854 20.4377 23.6503 20.4615 23.3278 20.6498C21.6415 21.6311 20.3804 23.1734 19.303 24.8446C17.9409 26.9579 16.5951 29.1088 15.5087 31.3985C14.7736 32.9467 14.4962 34.7567 14.0295 36.4556C13.9881 36.6063 14.0602 36.7946 14.08 36.9651C14.143 36.973 14.2043 36.9849 14.2656 36.9948Z" fill="white"/>
<path d="M25.3702 19.2803C25.7269 18.86 26.1557 18.4893 26.4295 18.0115C26.7574 17.4406 27.0421 16.8518 27.2817 16.2492C27.9717 14.5165 28.0618 13.2517 28.3285 10.7599C28.3555 10.5121 28.4131 9.89949 28.1141 9.32657C28.0366 9.17988 27.7772 8.68229 27.3772 8.67634C27.0781 8.67238 26.8601 8.94199 26.7773 9.04904C26.2926 9.67151 26.3665 10.748 26.5791 10.8233C26.6007 10.8312 26.6187 10.8273 26.6367 10.8233C26.8205 10.7856 26.907 10.4308 26.9556 10.2187C27.0655 9.74486 26.9916 9.58429 27.1286 9.45345C27.2295 9.35829 27.3916 9.33054 27.5051 9.39001C27.5087 9.39199 27.5123 9.39398 27.5177 9.39794C27.7177 9.52878 27.7591 10.07 27.7591 10.07C27.8024 10.6825 27.824 10.9878 27.7934 11.3665C27.7591 11.7907 27.7015 12.1039 27.6925 12.1575C27.3141 14.1993 26.2872 16.945 26.2872 16.945C26.0656 17.5298 25.7539 18.3307 25.3702 19.2803Z" fill="white"/>
<path d="M25.8602 19.8393C26.3052 19.538 26.8079 19.3041 27.1862 18.9234C27.6403 18.4675 28.0546 17.9818 28.4312 17.4703C29.5122 15.9994 29.9031 14.806 30.7571 12.4806C30.8418 12.2487 31.0454 11.6738 30.894 11.0374C30.8544 10.8729 30.7229 10.3178 30.3391 10.1969C30.0527 10.1057 29.777 10.3039 29.6707 10.3832C29.0545 10.8431 28.8672 11.9017 29.0545 12.0365C29.0744 12.0504 29.0924 12.0524 29.1104 12.0524C29.2978 12.0683 29.4635 11.7511 29.5626 11.5608C29.7824 11.1365 29.7482 10.9581 29.9139 10.8729C30.0346 10.8114 30.1968 10.8312 30.2923 10.9204C30.2959 10.9224 30.2995 10.9264 30.3031 10.9304C30.4652 11.1147 30.3752 11.648 30.3752 11.65C30.2707 12.2526 30.2184 12.5539 30.0977 12.9108C29.9626 13.3092 29.8329 13.5967 29.8094 13.6443C28.9537 15.5058 27.3069 17.8549 27.3069 17.8549C26.952 18.3525 26.4602 19.0345 25.8602 19.8393Z" fill="white"/>
<path d="M14.5639 10.966C14.9098 9.49905 15.8449 8.58714 17.1889 7.31245C19.1022 5.49656 19.9364 5.48467 20.6643 4.16835C21.3633 2.90357 21.3669 1.50993 21.2822 0.600006C21.8714 1.07777 25.2368 3.90469 25.8386 9.09662C26.3881 13.8425 24.2459 17.2701 23.7541 18.0175C22.365 19.4626 20.9742 20.9058 19.5851 22.351C17.987 19.6312 16.3908 16.9133 14.7945 14.1934C14.5423 13.4579 14.2558 12.2665 14.5639 10.966Z" fill="white"/>
<path d="M3.63871 10.6251C3.34864 9.87373 2.85859 9.95897 2.40278 8.84089C2.11091 8.12524 1.75418 6.71574 2.24783 6.123C3.02074 5.19722 5.69439 6.47984 7.26722 7.48294C9.91024 9.16799 11.1984 11.2178 13.7532 14.8753C14.8918 16.5069 16.7691 19.0959 19.3311 22.692L17.3619 25.3683C14.5171 22.0814 12.3371 21.4807 10.6633 21.3321C8.24372 21.118 5.73763 22.1449 5.02597 20.9078C4.49449 19.984 5.28901 18.3684 4.64042 17.9342C4.33774 17.732 4.0711 18.0175 3.48196 17.849C2.89102 17.6785 2.4316 17.1809 2.24603 16.83C1.38845 15.1866 4.44044 12.7046 3.63871 10.6251Z" fill="white"/>
<path d="M0.896587 26.5973C1.57401 25.8975 4.19721 23.3541 8.30857 23.1142C12.3731 22.8764 15.9728 25.6398 16.7241 26.2583L15.7061 28.2401C15.1026 28.4939 13.8576 29.2756 13.0937 30.1677C11.5804 31.934 12.0236 33.5853 10.3913 35.7759C9.80033 36.5689 8.94635 37.7147 7.76627 37.7306C6.56637 37.7464 5.67456 36.5808 5.14127 35.8611C2.82255 32.7388 2.84237 28.4648 2.97929 26.4308C2.28746 26.4843 1.59202 26.5418 0.896587 26.5973Z" fill="white"/>
</g>
<defs>
<clipPath id="clip0_539_1093">
<rect width="30.3325" height="37.1286" fill="white" transform="matrix(-1 0 0 1 31.2291 0.600006)"/>
</clipPath>
</defs>
</svg>
