<svg width="25" height="26" viewBox="0 0 25 26" fill="none" xmlns="http://www.w3.org/2000/svg">
<path fill-rule="evenodd" clip-rule="evenodd" d="M4.22768 13.1459H4.22388C4.22388 13.4808 4.22328 13.8158 4.22269 14.1508V14.151L4.22269 14.152L4.22266 14.1687C4.22131 14.9458 4.21996 15.723 4.22605 16.5004C4.23366 17.4747 4.36334 18.4225 4.74366 19.3182C5.17469 20.3331 5.84925 21.0683 6.76572 21.5488C7.60539 21.9892 8.50772 22.1018 9.41386 22.115C11.3384 22.1432 13.2635 22.1395 15.188 22.1144C15.947 22.1042 16.7071 22.0401 17.4411 21.7669C18.649 21.3163 19.5236 20.4847 20.0434 19.1894C20.4052 18.2883 20.4837 17.3374 20.494 16.3806C20.5145 14.5627 20.5096 12.7443 20.5048 10.9263L20.5027 10.1214C20.5011 9.44315 20.4657 8.76551 20.336 8.09809C20.0521 6.63618 19.3329 5.52954 18.1287 4.82014C17.2542 4.30551 16.2936 4.18746 15.3296 4.17907C14.875 4.17505 14.4203 4.16859 13.9655 4.16212L13.9653 4.16212C12.1871 4.13685 10.4083 4.11157 8.63196 4.23177C7.15479 4.33188 5.90757 4.95014 5.04393 6.33659C4.44562 7.29702 4.26307 8.39404 4.23421 9.52161C4.21267 10.3594 4.21787 11.1975 4.22306 12.0355V12.0356L4.22307 12.0365C4.2254 12.4063 4.22768 12.7761 4.22768 13.1459ZM11.5425 20.5797L11.5411 20.5797L11.5221 20.5798C10.6756 20.5851 9.97076 20.5896 9.2663 20.5651C8.59011 20.5417 7.91338 20.468 7.28403 20.1259C6.38664 19.6382 5.93219 18.8174 5.73659 17.7779C5.62306 17.173 5.62366 16.5613 5.62431 15.9494V15.8996C5.62491 15.3289 5.62436 14.7582 5.62382 14.1876V14.1874V14.1874C5.62235 12.6132 5.62089 11.0391 5.64284 9.46534C5.6554 8.55884 5.83083 7.67991 6.38501 6.95138C7.00724 6.13291 7.84419 5.8262 8.77103 5.77166C10.555 5.66689 12.3405 5.69051 14.1257 5.71414C14.5459 5.7197 14.9663 5.72526 15.3864 5.72908C15.9814 5.73453 16.5786 5.80162 17.1519 6.03825C18.1081 6.4331 18.6683 7.19644 18.9282 8.25327C19.047 8.7374 19.0731 9.23709 19.0938 9.73557C19.169 11.5612 19.1597 13.3879 19.1358 15.2135L19.1334 15.4093L19.1329 15.4581C19.1235 16.3015 19.114 17.149 18.9402 17.9816C18.6263 19.486 17.6035 20.2907 16.3411 20.4758C15.4875 20.6007 14.633 20.5849 13.8992 20.5713L13.8952 20.5712C13.4932 20.5638 13.1277 20.5571 12.8184 20.5747C12.3537 20.5747 11.933 20.5773 11.5425 20.5797ZM12.3373 17.7054C14.6388 17.8222 16.5274 15.558 16.5378 13.207C16.5492 10.6942 14.7326 8.56662 12.3738 8.54509C10.1109 8.5241 8.2387 10.5857 8.18636 13.0315C8.13245 15.5844 10.0798 17.7935 12.3373 17.7054ZM17.6716 8.34793C17.6744 7.76919 17.251 7.28685 16.7388 7.28506C16.225 7.28327 15.7864 7.76022 15.7788 8.3276C15.7717 8.87339 16.2043 9.35812 16.7078 9.36769C17.2418 9.37791 17.6689 8.92613 17.6716 8.34793ZM12.3498 16.2027C13.9572 16.1973 15.1565 14.7216 15.1244 13.201C15.1805 11.4659 13.8891 10.1094 12.395 10.0908C10.8519 10.071 9.62978 11.4131 9.59326 13.098C9.55674 14.76 10.8051 16.2081 12.3498 16.2027ZM10.5763 0.514282C5.05348 0.514282 0.576324 4.99143 0.576324 10.5143V15.4857C0.576324 21.0086 5.05348 25.4857 10.5763 25.4857H14.1666C19.6894 25.4857 24.1666 21.0086 24.1666 15.4857V10.5143C24.1666 4.99143 19.6894 0.514282 14.1666 0.514282H10.5763Z" fill="white"/>
</svg>
