<svg width="59" height="60" viewBox="0 0 59 60" fill="none" xmlns="http://www.w3.org/2000/svg">
<g clip-path="url(#clip0_356_8)">
<path d="M44.9599 4.06694C45.8692 4.69664 46.7796 5.32634 47.689 5.95717C48.1925 6.40842 48.696 6.86081 49.1996 7.31205C50.1577 8.16908 50.027 7.95994 49.2507 8.73627C47.8515 10.1366 46.4273 11.512 45.0178 12.9021C43.9426 13.9626 42.8696 15.0253 41.8068 16.0983C41.6079 16.2995 41.4817 16.2813 41.2862 16.0972C40.8111 15.6516 40.2939 15.2549 39.7552 14.8878C38.8186 14.2479 37.8445 13.6773 36.7715 13.2919C35.4507 12.6804 34.0504 12.336 32.6227 12.1201C29.9107 11.7097 27.2339 11.8677 24.614 12.7304C24.5742 12.7441 24.5367 12.7634 24.498 12.7804C24.2684 12.8475 24.0343 12.9009 23.8115 12.985C22.3088 13.559 20.8983 14.3081 19.6195 15.2879C18.9285 15.8176 18.2158 16.3325 17.6759 17.0338C15.8254 18.8547 14.4569 20.9836 13.584 23.4297C13.5078 23.4967 13.4908 23.5854 13.493 23.6809L13.4964 23.6774C13.4442 23.6888 13.4237 23.7195 13.4385 23.7729C13.4328 23.8025 13.426 23.8332 13.4203 23.8627C13.2816 23.9582 13.351 24.1901 13.1645 24.2549C12.2905 23.574 11.413 22.8954 10.5423 22.21C8.86689 20.8915 7.1858 19.5787 5.52516 18.242C4.79089 17.6521 3.98046 17.1508 3.35645 16.4279C4.77611 13.6125 6.63225 11.113 8.83961 8.86812C10.1433 7.54166 11.5857 6.38228 13.0782 5.27974C13.1418 5.25132 13.21 5.232 13.2668 5.19335C15.7868 3.48043 18.4943 2.15169 21.4132 1.27079C22.3736 0.980949 23.3534 0.755894 24.3241 0.500149C24.3798 0.493329 24.4355 0.487646 24.4912 0.480826C24.6174 0.468323 24.7458 0.464913 24.8708 0.44218C27.0884 0.0500383 29.3185 -0.0829489 31.5679 0.0500383C32.8864 0.128467 34.1902 0.31715 35.4962 0.489919C35.5257 0.492193 35.5564 0.495603 35.586 0.497876C35.7337 0.542205 35.8804 0.60131 36.0315 0.629727C37.6808 0.94003 39.2767 1.43788 40.8339 2.05053C41.7148 2.39721 42.565 2.8189 43.4299 3.2065L43.4504 3.21445C43.9403 3.52248 44.4313 3.82824 44.9599 4.06694Z" fill="#E94236"/>
<path d="M13.3965 36.0771C14.2729 38.6345 15.6505 40.8794 17.5373 42.8219C19.107 44.4382 20.9098 45.7067 22.9648 46.624C25.6643 47.8288 28.4934 48.238 31.4305 48.0164C32.7763 47.9152 34.1051 47.7322 35.4054 47.3628C35.4747 47.3514 35.5452 47.3469 35.6122 47.3298C37.3695 46.8559 38.9676 46.0375 40.4907 45.0588C40.5657 45.5521 40.9556 45.8386 41.2932 46.1C41.6978 46.4137 42.1207 46.7081 42.5253 47.0252C43.03 47.4208 43.5335 47.8197 44.0518 48.1971C44.4656 48.4972 44.9179 48.745 45.3226 49.0564C45.9421 49.5326 46.5684 50.0146 47.1367 50.5386C48.0312 51.3638 49.0587 52.0264 49.9033 52.9039C49.2247 53.6302 48.4199 54.2043 47.6357 54.8033C46.8605 55.3955 45.9909 55.841 45.1953 56.4025C45.168 56.3991 45.1464 56.4082 45.1282 56.4287C44.1871 56.8776 43.2459 57.3255 42.3048 57.7745C40.4066 58.5019 38.4664 59.0805 36.4613 59.4226C32.1409 60.1603 27.8217 60.2717 23.5206 59.293C18.9775 58.2587 14.9003 56.2536 11.2847 53.3154C8.02818 50.6693 5.42072 47.4901 3.46455 43.7778C3.41227 43.6789 3.38272 43.5698 3.3418 43.4652C3.64301 43.2675 3.90216 43.0038 4.2011 42.8139C5.15929 42.2047 6.01177 41.4602 6.9029 40.7657C7.60989 40.2156 8.26574 39.595 8.99546 39.0789C10.0514 38.331 11.0698 37.5411 12.0303 36.6783C12.3883 36.3567 12.8123 36.11 13.1169 35.7292C13.3204 35.7554 13.284 35.9759 13.3965 36.0771Z" fill="#35A755"/>
<path d="M49.9046 52.9039C49.06 52.0264 48.0314 51.3638 47.138 50.5386C46.5697 50.0146 45.9434 49.5326 45.3239 49.0564C44.9192 48.7461 44.4669 48.4972 44.0531 48.1971C43.5348 47.8197 43.0313 47.4208 42.5266 47.0252C42.122 46.7081 41.698 46.4126 41.2945 46.1C40.9558 45.8374 40.5659 45.5521 40.492 45.0588C41.0308 44.628 41.5741 44.2041 42.0731 43.7233C43.2154 42.6219 44.1861 41.3931 44.8908 39.9644C45.483 38.9403 45.907 37.8434 46.2616 36.7181C46.4287 36.1885 46.4162 36.1828 45.8831 36.1828C40.9251 36.1828 35.9682 36.1839 31.0101 36.185C30.9249 36.185 30.8396 36.1862 30.7544 36.185C30.2009 36.1816 30.2009 36.1816 30.2009 35.6406C30.1997 32.2602 30.2065 28.8787 30.1895 25.4983C30.1872 25.1119 30.3009 25.0357 30.6669 25.0357C39.7441 25.0459 48.8213 25.0459 57.8986 25.0357C58.2521 25.0357 58.3851 25.1187 58.4317 25.4835C58.8011 28.399 58.8147 31.3168 58.5078 34.2368C57.9929 39.1255 56.663 43.7517 54.0397 47.9539C53.0144 49.5963 51.83 51.1137 50.4331 52.4606C50.3547 52.5357 50.3001 52.6368 50.2342 52.7255C50.1228 52.7846 50.0137 52.8437 49.9046 52.9039Z" fill="#4285F5"/>
<path d="M13.1156 35.727C12.8109 36.1089 12.387 36.3544 12.0289 36.6761C11.0685 37.5388 10.05 38.3288 8.99408 39.0767C8.26436 39.5939 7.60852 40.2133 6.90152 40.7635C6.0104 41.458 5.15791 42.2025 4.19972 42.8117C3.90079 43.0015 3.64163 43.2652 3.34042 43.463C2.99829 43.2493 2.9085 42.8538 2.77096 42.5344C2.29925 41.4364 1.88893 40.3111 1.48655 39.1847C1.12738 38.1787 0.838668 37.1512 0.664762 36.093C0.509041 35.1462 0.291943 34.2062 0.191918 33.2537C0.0361978 31.7726 -0.0558704 30.2813 0.0361977 28.7912C0.163502 26.7157 0.43857 24.6629 0.956879 22.6408C1.45814 20.6824 2.14353 18.8001 3.0233 16.9826C3.11878 16.786 3.10741 16.5291 3.35633 16.4257C3.98035 17.1497 4.79078 17.6498 5.52505 18.2409C7.18682 19.5776 8.86678 20.8893 10.5422 22.2089C11.4129 22.8943 12.2904 23.5729 13.1633 24.2537C13.1212 24.4606 13.1031 24.6743 13.036 24.8721C12.745 25.7416 12.5586 26.6418 12.4597 27.5443C12.3472 28.5707 12.3176 29.6107 12.3574 30.6473C12.4017 31.7624 12.4938 32.8683 12.7245 33.9698C12.8496 34.5574 13.1599 35.1053 13.1156 35.727Z" fill="#F9BB07"/>
</g>
<defs>
<clipPath id="clip0_356_8">
<rect width="58.7224" height="60" fill="white"/>
</clipPath>
</defs>
</svg>
